<svg width="35" height="35" viewBox="0 0 35 35" fill="none" xmlns="http://www.w3.org/2000/svg">
<path d="M32.0834 1.45834H2.91671C2.52993 1.45834 2.159 1.61199 1.88551 1.88548C1.61202 2.15897 1.45837 2.5299 1.45837 2.91668V32.0833C1.45837 32.4701 1.61202 32.841 1.88551 33.1145C2.159 33.388 2.52993 33.5417 2.91671 33.5417H32.0834C32.4701 33.5417 32.8411 33.388 33.1146 33.1145C33.3881 32.841 33.5417 32.4701 33.5417 32.0833V2.91668C33.5417 2.5299 33.3881 2.15897 33.1146 1.88548C32.8411 1.61199 32.4701 1.45834 32.0834 1.45834ZM30.625 24.7917H18.9584V4.37501H30.625V24.7917ZM4.37504 4.37501H16.0417V24.7917H4.37504V4.37501ZM30.625 30.625H4.37504V27.7083H30.625V30.625ZM14.5834 13.125V16.0417C14.5834 16.4284 14.4297 16.7994 14.1562 17.0729C13.8827 17.3464 13.5118 17.5 13.125 17.5C12.7383 17.5 12.3673 17.3464 12.0938 17.0729C11.8204 16.7994 11.6667 16.4284 11.6667 16.0417V13.125C11.6667 12.7382 11.8204 12.3673 12.0938 12.0938C12.3673 11.8203 12.7383 11.6667 13.125 11.6667C13.5118 11.6667 13.8827 11.8203 14.1562 12.0938C14.4297 12.3673 14.5834 12.7382 14.5834 13.125ZM20.4167 16.0417V13.125C20.4167 12.7382 20.5704 12.3673 20.8438 12.0938C21.1173 11.8203 21.4883 11.6667 21.875 11.6667C22.2618 11.6667 22.6327 11.8203 22.9062 12.0938C23.1797 12.3673 23.3334 12.7382 23.3334 13.125V16.0417C23.3334 16.4284 23.1797 16.7994 22.9062 17.0729C22.6327 17.3464 22.2618 17.5 21.875 17.5C21.4883 17.5 21.1173 17.3464 20.8438 17.0729C20.5704 16.7994 20.4167 16.4284 20.4167 16.0417Z" fill="#1F2937"/>
</svg>
