<svg width="29" height="34" viewBox="0 0 29 34" fill="none" xmlns="http://www.w3.org/2000/svg">
<path d="M12.7206 19.135L19.5313 10.962M26.4985 5.97415L20.7495 28.3956C20.2343 30.4049 19.9764 31.41 19.532 31.7433C19.1467 32.0322 18.6694 32.0806 18.2496 31.8715C17.7656 31.6305 17.3728 30.6892 16.589 28.8083L12.9477 20.069C12.8233 19.7705 12.7611 19.6219 12.678 19.4925C12.6042 19.3779 12.5192 19.2743 12.4236 19.1859C12.3182 19.0884 12.1965 19.0154 11.9588 18.8729L4.65935 14.4931C3.0919 13.5527 2.30811 13.082 2.10726 12.5011C1.93308 11.9974 1.97279 11.4242 2.21362 10.9616C2.49132 10.4283 3.32887 10.1185 5.00384 9.50004L23.6881 2.60114C25.005 2.11494 25.6637 1.87203 26.1083 2.06797C26.4958 2.23864 26.8012 2.6048 26.9434 3.06972C27.1066 3.60319 26.9041 4.3932 26.4993 5.97182L26.4985 5.97415Z" stroke="#1F2937" stroke-width="2.5" stroke-linecap="round" stroke-linejoin="round"/>
</svg>
