<svg width="35" height="35" viewBox="0 0 35 35" fill="none" xmlns="http://www.w3.org/2000/svg">
<path fill-rule="evenodd" clip-rule="evenodd" d="M3.64811 0H31.3518L35 10.382V13.6957C35 15.2206 34.4511 16.6306 33.5417 17.6861V35H1.45833V17.6861C0.548994 16.6306 0 15.2206 0 13.6957V10.382L3.64811 0ZM29.5312 19.5653C29.9069 19.5653 30.2727 19.5251 30.625 19.4488V31.9565H23.3333V22.8261H11.6667V31.9565H4.375V19.4488C4.72737 19.5251 5.09301 19.5653 5.46875 19.5653C7.07056 19.5653 8.48865 18.8359 9.47917 17.6861C10.4697 18.8359 11.8878 19.5653 13.4896 19.5653C15.0914 19.5653 16.5095 18.8359 17.5 17.6861C18.4905 18.8359 19.9086 19.5653 21.5104 19.5653C23.1122 19.5653 24.5303 18.8359 25.5208 17.6861C26.5113 18.8359 27.9294 19.5653 29.5312 19.5653ZM14.5833 31.9565H20.4167V25.8696H14.5833V31.9565ZM32.0833 12.1739V13.6957C32.0833 15.3117 30.8887 16.5218 29.5312 16.5218C28.1738 16.5218 26.9792 15.3117 26.9792 13.6957V12.1739H32.0833ZM31.4537 9.13043L29.3148 3.04348H5.68523L3.54634 9.13043H31.4537ZM2.91667 12.1739V13.6957C2.91667 15.3117 4.11131 16.5218 5.46875 16.5218C6.82619 16.5218 8.02083 15.3117 8.02083 13.6957V12.1739H2.91667ZM10.9375 12.1739V13.6957C10.9375 15.3117 12.1321 16.5218 13.4896 16.5218C14.847 16.5218 16.0417 15.3117 16.0417 13.6957V12.1739H10.9375ZM18.9583 12.1739V13.6957C18.9583 15.3117 20.153 16.5218 21.5104 16.5218C22.8678 16.5218 24.0625 15.3117 24.0625 13.6957V12.1739H18.9583Z" fill="#1F2937"/>
</svg>
